<svg xmlns="http://www.w3.org/2000/svg" width="77" height="30" viewBox="0 0 64 24" aria-labell="Goodfood WOW" role="presentation" preserveAspectRatio="xMidYMid meet" fill="none" focusable="false">
	<g>
		<path d="M51.0547 21.7044C51.0547 22.506 50.4997 23.1842 49.6365 23.1842C48.7732 23.1842 48.2183 22.4443 48.2183 21.6427C48.2183 20.8412 48.7732 20.1629 49.6365 20.1629C50.4997 20.2246 51.0547 20.9028 51.0547 21.7044ZM49.6981 18.8064C47.9717 18.8064 46.6768 20.1012 46.6768 21.7661C46.6768 23.3692 47.91 24.6641 49.6365 24.6641C51.363 24.6641 52.6578 23.3692 52.6578 21.7044C52.6578 20.1012 51.363 18.8064 49.6981 18.8064Z" fill="#F18A59"></path> 
		<path d="M59.8721 18.8064L58.8855 22.1977L57.7756 18.868H56.4191L55.3092 22.1977L54.3227 18.868H52.6578L54.5076 24.6641H55.8642L57.0357 21.3344L58.1456 24.6641H59.5021L61.4136 18.868H59.8721V18.8064Z" fill="#F18A59"></path> 
		<path d="M41.4356 23.8008C41.4356 24.2941 41.0657 24.6641 40.634 24.6641C40.2024 24.6641 39.8325 24.2941 39.8325 23.8008C39.8325 23.4925 39.9558 23.2459 40.1408 23.1226C40.2641 22.9993 40.4491 22.9376 40.634 22.9376C40.819 22.9376 41.004 22.9993 41.1273 23.1226C41.3123 23.2459 41.4356 23.4925 41.4356 23.8008Z" fill="#F18A59"></path> 
		<path d="M45.012 23.8008C45.012 24.2941 44.642 24.6641 44.2104 24.6641C43.7788 24.6641 43.4088 24.2941 43.4088 23.8008C43.4088 23.4925 43.5321 23.2459 43.7171 23.1226C43.8404 22.9993 44.0254 22.9376 44.2104 22.9376C44.3954 22.9376 44.5804 22.9993 44.7037 23.1226C44.8887 23.2459 45.012 23.4925 45.012 23.8008Z" fill="#F18A59"></path> 
		<path d="M46.6768 18.8064L45.3203 22.9993C45.0736 22.6293 44.7036 22.3827 44.2104 22.3827C43.7171 22.3827 43.2855 22.691 43.0388 23.061H42.9772L42.3606 21.2111L41.8056 22.9993C41.559 22.6293 41.189 22.3827 40.6957 22.3827C40.2025 22.3827 39.7708 22.691 39.5242 23.061L38.5993 20.2246H36.9961V18.7447H39.7708L40.7574 22.0127L41.8056 18.7447H43.1005L44.1487 22.0127L45.1353 18.7447H46.6768V18.8064Z" fill="#F18A59"></path> 
		<path d="M28.4253 18.8064H9.61896V20.2862H28.4253V18.8064Z" fill="#F18A59"></path> 
		<path d="M0.061615 18.9914C0.061615 18.1898 0.554896 17.6965 1.29482 17.6965C1.7881 17.6965 2.03474 17.9432 1.97308 18.3748C1.4798 18.4364 1.1715 18.7447 1.1715 19.238C1.1715 20.1629 2.03474 20.9028 4.00787 20.9028C5.91933 20.9028 7.02922 20.1629 7.02922 19.1147C7.02922 18.2515 6.16597 18.0665 4.19285 17.9432C2.03474 17.8198 0.739877 17.2649 0.739877 15.97C0.739877 14.9835 1.4798 14.3669 3.26795 14.3669H3.32961C1.60312 14.3669 0.308256 13.257 0.308256 11.6538C0.308256 9.98899 1.54146 8.94077 3.32961 8.94077C4.13119 8.94077 4.87111 9.18741 5.42605 9.68069C5.91933 9.18741 6.53594 8.8791 7.15254 8.8791C7.89246 8.8791 8.38574 9.31073 8.38574 9.98899C8.38574 10.6673 7.95412 10.9756 7.46084 10.9756C6.96756 10.9139 6.65926 10.6056 6.65926 10.1123C6.65926 9.86567 6.72092 9.68069 6.72092 9.55737C6.72092 9.43405 6.65926 9.37239 6.53594 9.37239C6.35095 9.37239 6.04265 9.55737 5.73435 9.86567C6.22763 10.3589 6.47427 11.0372 6.47427 11.8388C6.47427 13.5036 5.24107 14.6135 3.26795 14.6135C2.15806 14.6135 1.7881 14.8601 1.7881 15.2301C1.7881 15.785 2.46636 15.9084 4.37783 15.97C6.72092 16.0933 8.01578 16.6483 8.01578 18.3748C8.01578 20.2246 6.28929 21.1495 3.94621 21.1495C1.72644 21.0878 0.061615 20.4096 0.061615 18.9914ZM3.51459 14.2435C4.43949 14.2435 4.74779 13.1953 4.74779 11.7155C4.74779 10.1123 4.43949 9.18741 3.51459 9.18741C2.65134 9.18741 2.34304 10.1123 2.34304 11.7155C2.28138 13.1953 2.65134 14.2435 3.51459 14.2435Z" fill="#73C6CB"></path> 
		<path d="M12.0854 17.3882C10.0507 17.3882 8.26251 15.8467 8.26251 13.1337C8.26251 10.4206 10.0507 8.8791 12.0854 8.8791C14.1202 8.8791 15.9084 10.4206 15.9084 13.1337C15.9084 15.8467 14.1202 17.3882 12.0854 17.3882ZM12.0854 17.1416C13.442 17.1416 13.8119 15.5384 13.8119 13.1953C13.8119 10.8522 13.442 9.18741 12.0854 9.18741C10.7289 9.18741 10.359 10.7906 10.359 13.1953C10.359 15.5384 10.7289 17.1416 12.0854 17.1416Z" fill="#73C6CB"></path> 
		<path d="M20.2862 17.3882C18.2514 17.3882 16.4633 15.8467 16.4633 13.1337C16.4633 10.4206 18.2514 8.8791 20.2862 8.8791C22.321 8.8791 24.1092 10.4206 24.1092 13.1337C24.1092 15.8467 22.321 17.3882 20.2862 17.3882ZM20.2862 17.1416C21.6427 17.1416 22.0127 15.5384 22.0127 13.1953C22.0127 10.8522 21.6427 9.18741 20.2862 9.18741C18.9297 9.18741 18.5597 10.7906 18.5597 13.1953C18.5597 15.5384 18.9297 17.1416 20.2862 17.1416Z" fill="#73C6CB"></path> 
		<path d="M27.9937 17.3881C26.3905 17.3881 24.7257 16.0316 24.7257 13.1952C24.7257 10.1122 26.9455 8.87903 28.672 8.87903C29.2269 8.87903 29.7202 9.00235 30.1518 9.18733V6.35096C30.1518 5.6727 29.9668 5.42606 29.1652 5.3644L28.487 5.24108V5.0561L31.94 4.37784L32.1866 4.50116C32.1249 5.11776 32.0633 5.85768 32.0633 6.53595V15.785C32.0633 16.4632 32.1866 16.6482 32.8032 16.7099L33.2965 16.8332V17.0798H30.5218L30.3368 16.8949V13.6885C30.3984 16.3399 29.5352 17.3881 27.9937 17.3881ZM30.1518 13.7502V9.98892C29.8435 9.37231 29.2269 9.12567 28.672 9.12567C27.4388 9.12567 26.8222 10.4205 26.8222 13.1952C26.8222 15.7233 27.3154 16.8949 28.487 16.8949C29.3502 16.9565 30.1518 16.0316 30.1518 13.7502Z" fill="#73C6CB"></path> 
		<path d="M29.9668 19.6079C29.9668 18.868 30.4601 18.313 31.1384 18.313C31.8166 18.313 32.1866 18.8063 32.1866 19.3613C32.1866 20.3478 31.385 20.2245 31.385 20.5945C31.385 20.7795 31.57 20.9028 31.8783 20.9028C32.5566 20.9028 33.1732 20.2862 33.6664 18.4364L35.023 13.0719C35.0846 12.8253 35.5162 11.1605 35.8245 9.8656L34.283 9.61895L34.3447 9.37231L36.0712 9.12567C36.1945 8.69405 36.2562 8.38575 36.2562 8.32409C36.9344 5.6727 38.5376 4.37784 40.3874 4.37784C41.8056 4.37784 42.5455 5.11776 42.5455 5.981C42.5455 6.78259 42.0522 7.27587 41.374 7.27587C40.7574 7.27587 40.3257 6.84425 40.3257 6.22764C40.4491 5.30274 41.3123 5.24108 41.3123 4.93278C41.3123 4.7478 41.0657 4.56282 40.5724 4.56282C39.5858 4.56282 38.9692 5.3644 38.5993 7.02923C38.4143 7.70749 38.2293 8.69405 38.106 9.12567V9.18733H40.3874L40.3257 9.61895L37.9827 9.74228L36.9961 13.1336C36.9344 13.5652 36.0095 16.9565 35.9479 17.1415C35.1463 19.9779 33.5431 21.0878 32.0016 21.0878C30.6451 21.0878 29.9668 20.4711 29.9668 19.6079Z" fill="#73C6CB"></path> 
		<path d="M41.2507 17.3882C39.7708 17.3882 38.5376 16.4633 38.5376 14.4285C38.5376 11.7155 40.3874 8.8791 43.2855 8.8791C44.7653 8.8791 45.9985 9.80401 45.9985 11.8388C45.9985 14.5518 44.0871 17.3882 41.2507 17.3882ZM41.2507 17.1416C41.9289 17.1416 42.5455 16.4016 43.0388 15.4151C43.6554 14.1202 44.1487 12.0238 44.1487 10.6672C44.1487 9.61903 43.8404 9.24907 43.2238 9.24907C42.6072 9.24907 41.9289 9.98899 41.4357 10.9756C40.8191 12.2704 40.3258 14.3669 40.3258 15.7234C40.3258 16.7099 40.6341 17.1416 41.2507 17.1416Z" fill="#73C6CB"></path> 
		<path d="M49.0198 17.3882C47.54 17.3882 46.3068 16.4633 46.3068 14.4285C46.3068 11.7155 48.1566 8.8791 51.0546 8.8791C52.5344 8.8791 53.7676 9.80401 53.7676 11.8388C53.7676 14.5518 51.8562 17.3882 49.0198 17.3882ZM49.0198 17.1416C49.6981 17.1416 50.3147 16.4016 50.808 15.4151C51.4246 14.1202 51.9178 12.0238 51.9178 10.6672C51.9178 9.61903 51.6095 9.24907 50.9929 9.24907C50.3763 9.24907 49.6981 9.98899 49.2048 10.9756C48.5882 12.2704 48.0949 14.3669 48.0949 15.7234C48.0949 16.7099 48.4032 17.1416 49.0198 17.1416Z" fill="#73C6CB"></path> 
		<path d="M58.5772 15.9083C58.5772 15.5383 58.7005 15.0451 58.8238 14.5518C58.1456 16.5249 57.4673 17.3881 56.3574 17.3881C55.1859 17.3881 54.076 16.4632 54.076 14.4284C54.076 11.7154 56.1724 8.94069 58.8855 8.94069C59.3788 8.94069 59.8104 9.06401 60.1187 9.18733L60.8586 6.47428C61.0436 5.6727 60.9819 5.48772 60.3037 5.3644L59.5637 5.24108V5.0561L63.2634 4.37784L63.4483 4.50116C63.2017 5.11776 62.9551 5.73436 62.7084 6.53595L60.427 14.9217C60.3037 15.2917 60.242 15.785 60.242 16.0933C60.242 16.5249 60.3653 16.7099 60.797 16.7099C61.2902 16.7099 61.8452 16.0933 62.4618 14.4284L62.7084 14.5518C62.0302 16.4632 61.4752 17.3265 60.1803 17.3265C59.1321 17.3265 58.5772 16.7715 58.5772 15.9083ZM59.0088 13.1952L59.9337 9.8656C59.7487 9.43397 59.4404 9.12567 59.0088 9.12567C58.2072 9.12567 57.4056 9.98892 56.8507 11.2838C56.2958 12.5786 55.9258 14.3051 55.9258 15.3534C55.9258 16.4016 56.2341 16.8332 56.7274 16.8332C57.4673 16.8949 58.2072 15.97 59.0088 13.1952Z" fill="#73C6CB"></path> 
		<path d="M11.4688 2.95967H10.6672V3.63793H11.4688C11.7771 3.63793 11.9004 3.51461 11.9004 3.26797C11.8387 3.08299 11.7154 2.95967 11.4688 2.95967Z" fill="#73C6CB"></path> 
		<path d="M7.33759 4.19294H8.13917L7.76921 3.02139L7.33759 4.19294Z" fill="#73C6CB"></path> 
		<path d="M22.8143 5.36444H20.2245V2.34309H22.7526V2.95969H20.9645V3.51463H22.2593V4.13123H20.9645V4.8095H22.8143V5.36444ZM19.423 5.36444H18.683V4.13123H17.3265V5.36444H16.5866V2.34309H17.3265V3.51463H18.683V2.34309H19.423V5.36444ZM14.6751 5.4261C13.6886 5.4261 13.1336 4.74783 13.1336 3.82293C13.1336 2.89803 13.7502 2.28143 14.6751 2.28143C15.3534 2.28143 15.785 2.58973 15.97 3.08301L15.3534 3.45297C15.2301 3.08301 15.0451 2.95969 14.6751 2.95969C14.2435 2.95969 13.9352 3.26799 13.9352 3.82293C13.9352 4.37787 14.2435 4.74783 14.6751 4.74783C15.0451 4.74783 15.2301 4.50119 15.3534 4.19289L15.97 4.62451C15.785 5.05614 15.415 5.4261 14.6751 5.4261ZM12.6403 5.30278H11.9004C11.9004 5.17946 11.9004 5.05614 11.8388 4.68617C11.8388 4.31621 11.7154 4.19289 11.3455 4.19289H10.6672V5.30278H9.92729V2.34309H11.5921C12.332 2.34309 12.702 2.65139 12.702 3.26799C12.702 3.76127 12.4554 3.94625 12.2087 4.00791C12.3937 4.06957 12.517 4.19289 12.5787 4.31621C12.6403 4.56285 12.6403 4.87116 12.702 5.1178C12.5787 5.17946 12.5787 5.24112 12.6403 5.30278ZM8.50911 5.30278L8.32413 4.74783H7.15258L6.9676 5.30278H6.16602L7.2759 2.28143H8.20081L9.31069 5.30278H8.50911ZM5.7344 5.30278H4.99448V3.26799L4.19289 5.30278H3.63795L2.89803 3.26799V5.30278H2.21977V2.28143H3.20633L3.88459 4.25455L4.56285 2.28143H5.61108L5.7344 5.30278ZM21.3961 1.5415H22.2593L21.5811 2.15811H21.0878L21.3961 1.5415ZM0 0V7.2759L24.6641 7.39922V0.12332L0 0Z" fill="#73C6CB"></path>
	</g>
</svg>